<?xml version="1.0" encoding="utf-8"?>
<!-- Generator: Adobe Illustrator 14.0.0, SVG Export Plug-In . SVG Version: 6.00 Build 43363)  -->
<!DOCTYPE svg PUBLIC "-//W3C//DTD SVG 1.1//EN" "http://www.w3.org/Graphics/SVG/1.1/DTD/svg11.dtd">
<svg version="1.1" id="Layer_1" xmlns="http://www.w3.org/2000/svg" xmlns:xlink="http://www.w3.org/1999/xlink" x="0px" y="0px"
	 width="447.899px" height="78.151px" viewBox="0 0 447.899 78.151" enable-background="new 0 0 447.899 78.151"
	 xml:space="preserve">
<g>
	<path fill="#F17126" d="M329.841,16.492h-2.447h-16.365h-2.348l-7.699,41.106h2.428h15.939h2.352
		c7.285,0,12.334-4.205,13.52-11.594c0.727-5.119-1.271-8.891-4.951-9.556c4.111-1.341,6.785-5.042,7.631-10.407
		C338.97,18.988,335.376,16.492,329.841,16.492z M323.128,44.837c-0.586,4.211-3.438,4.709-6.135,4.709h-2.266l1.668-8.815h3.551
		C322.802,40.731,323.54,42.573,323.128,44.837z M325.39,28.16c-0.521,2.995-2.262,4.518-5.971,4.518h-1.596l1.525-8.141h2.008
		C323.44,24.537,325.894,24.787,325.39,28.16z"/>
	<path fill="#F17126" d="M292.499,24.707c3.779,0.156,7.133,1.502,7.889,1.939l0.838-9.665c-2.664-0.668-5.541-1.171-8.465-1.171
		h-2.527c-11.088,0-13.689,8.4-14.098,11.239c-1.5,9.647,9.309,14.595,8.564,19.304c-0.322,2.176-2.18,3.286-3.787,3.193
		c-4.777-0.342-8.477-2.197-9.23-2.68l-0.82,10.147c3,0.739,6.211,1.409,9.459,1.409h2.527c10.498,0,14.008-7.791,14.672-11.981
		c1.354-9.144-9.48-13.697-8.797-18.553C289.062,25.874,290.978,24.604,292.499,24.707z"/>
	<path fill="#F17126" d="M27.278,27.389c-0.84-0.913-1.597-1.77-2.281-2.591c-1.255-1.688-2.421-3.715-2.095-6.048
		c0.343-2.608,2.095-4.041,3.707-4.792c1.084-0.585,2.34-0.861,3.35-0.912c5.462,0,8.387,1.493,9.155,1.837l0.673-8.996
		c-3.369-0.73-6.901-1.257-10.496-1.257h-2.51C12.354,4.63,9.474,14.8,9.072,17.902c-0.769,5.469,2.082,9.739,5.532,13.676
		c0.841,1.002,1.68,1.939,2.512,2.86c0.854,0.92,1.597,1.851,2.266,2.675c1.27,1.693,2.426,3.706,2.11,6.044
		c-0.41,2.711-2.185,4.189-3.864,4.875c-1.085,0.416-2.25,0.651-3.277,0.74c-5.535-0.089-8.559-1.513-8.559-1.513
		c-0.938-0.306-1.683-0.737-2.506-1.079l-0.603,9.479c3.862,0.848,7.813,1.5,11.837,1.5h2.511c13.682,0,17.79-9.455,18.479-14.158
		c0.667-5.032-2.202-9.08-5.647-12.834C28.949,29.157,28.12,28.228,27.278,27.389z"/>
	<path fill="#F17126" d="M67.13,16.641l-3.448,19.647c-1.426,6.639-2.437,12.332-7.71,13.169c-3.197-0.586-4.124-3.788-3.357-8.719
		l4.278-24.097H43.72l-5.293,29.711c-0.839,5.629,2.027,12.16,14.936,12.16h2.521c12.587,0,18.206-6.531,19.306-12.844l5.117-29.028
		H67.13z"/>
	<path fill="#F17126" d="M109.505,16.567H86.661l-7.7,41.098h11.894l5.964-32.459c0,0,4.216,0.088,5.386,0
		c1.596,0.244,2.683,1.101,2.251,3.951c-0.483,3.024-2.423,5.276-4.518,5.615c-0.244,0-3.438-0.171-3.69-0.171l2.421,7.562
		c0.342,0,3.962,0.074,4.189,0.074c6.733,0,12.776-5.216,14.121-14.009C117.558,24.454,117.477,16.567,109.505,16.567z"/>
	<polygon fill="#F17126" points="141.723,41.407 143.407,32.583 130.719,32.583 132.146,25.048 147.428,25.048 148.94,16.566 
		121.821,16.566 114.111,57.673 141.216,57.673 142.716,49.116 127.526,49.116 129.067,41.407 	"/>
	<path fill="#F17126" d="M185.271,27.472c1.582-10.647-7.729-10.904-10.07-10.904h-21.726l-7.729,41.098h12.406l6.061-32.542h3.521
		c2.25,0,5.529,0,4.877,4.204c-0.602,3.588-3.199,5.103-5.792,5.444c-0.34,0-2.866,0-3.616-0.17l12.743,40.92h13.345l-13.502-36.062
		C180.667,37.454,184.274,33.917,185.271,27.472z"/>
	<path fill="#F17126" d="M436.474,24.707c3.777,0.156,7.146,1.502,7.885,1.939l0.857-9.665c-2.711-0.668-5.549-1.171-8.498-1.171
		h-2.496c-11.092,0-13.686,8.4-14.102,11.239c-1.492,9.647,9.311,14.595,8.553,19.304c-0.311,2.176-2.18,3.286-3.775,3.193
		c-4.777-0.342-8.453-2.197-9.207-2.68l-0.781,9.122c-1.986-13.102-3.838-26.231-5.438-39.489h-2.184H397.21h-2.338
		c-3.452,6.553-14.707,26.552-20.995,37.149l-5.37-14.189c4.963-2.006,8.486-5.542,9.482-11.988
		c1.613-10.647-7.73-10.904-10.082-10.904h-21.729l-7.625,41.098h12.328l6.139-32.542h3.451c2.25,0,5.527,0,4.846,4.204
		c-0.49,3.588-3.195,5.103-5.691,5.444c-0.412,0-2.949,0-3.705-0.17l7.166,23.063h8.364c-0.002,0.002-0.003,0.006-0.005,0.008h1.666
		h8.914h2.352l6.287-12.16h10.41l0.066,0.498c0.52,3.877,1.02,7.709,1.27,11.662h2.211h8.553h1.986c-0.03-0.199-0.06-0.399-0.09-0.6
		c2.956,0.715,6.081,1.35,9.244,1.35h2.605c10.379,0,13.934-7.791,14.588-11.981c1.338-9.144-9.486-13.697-8.723-18.553
		C433.056,25.874,434.95,24.604,436.474,24.707z M394.356,37.712l5.377-10.152l1.07,10.152H394.356z"/>
	<path fill="#F17126" d="M228.809,30.663h-15.68l-1.587,8.558h2.415h3.023l-2.093,10.146c0,0-2.428,1.188-5.381,1.188
		c-6.112-0.668-9.226-5.785-7.953-14.187c1.841-11.92,8.296-18.622,17.708-18.622c5.941,0,11.064,1.841,12.486,2.34l1.168-9.656
		c-4.334-1.077-8.798-1.753-13.401-1.753h-1.271h-1.509c-17.121,0-26.674,13.244-28.697,26.92
		c-1.271,7.9-1.581,23.583,18.462,23.583c0,0,8.454,0.601,19.719-1.818l4.946-26.699H228.809z"/>
	<path fill="#F17126" d="M262.464,16.499h-10.064h-2.356c-3.952,7.525-18.205,32.787-23.412,41.174h1.695h8.886h2.351l6.3-12.16
		h10.396l0.072,0.498c0.512,3.877,1.023,7.709,1.27,11.662h2.18h8.471h2.107c-2.107-13.66-4.033-27.348-5.697-41.174H262.464z
		 M249.543,37.712l5.36-10.152l1.098,10.152H249.543z"/>
</g>
</svg>
