<?xml version="1.0" encoding="utf-8"?>
<!-- Generator: Adobe Illustrator 14.0.0, SVG Export Plug-In . SVG Version: 6.00 Build 43363)  -->
<!DOCTYPE svg PUBLIC "-//W3C//DTD SVG 1.1//EN" "http://www.w3.org/Graphics/SVG/1.1/DTD/svg11.dtd">
<svg version="1.1" id="Layer_1" xmlns="http://www.w3.org/2000/svg" xmlns:xlink="http://www.w3.org/1999/xlink" x="0px" y="0px"
	 width="514.286px" height="169.748px" viewBox="0 0 514.286 169.748" enable-background="new 0 0 514.286 169.748"
	 xml:space="preserve">
<path fill="#FFFFFF" d="M15.991,150.176l2.072,6.46h-4.201L15.991,150.176z M14.089,146.424l-5.857,16.41h3.588l1.111-3.371h6.042
	l1.083,3.371h3.717l-5.805-16.41H14.089z"/>
<g>
	<path fill="#FFFFFF" d="M40.835,150.509c-0.261-1.117-0.896-1.902-1.903-2.348c-0.565-0.246-1.193-0.365-1.884-0.365
		c-1.32,0-2.404,0.498-3.255,1.494c-0.849,0.996-1.273,2.492-1.273,4.494c0,2.014,0.459,3.441,1.378,4.279
		c0.923,0.834,1.967,1.252,3.143,1.252c1.148,0,2.089-0.328,2.827-0.99c0.73-0.658,1.187-1.523,1.355-2.594H37.43v-2.736h6.833
		v8.805h-2.268l-0.347-2.047c-0.661,0.773-1.254,1.322-1.779,1.639c-0.907,0.553-2.024,0.832-3.343,0.832
		c-2.172,0-3.954-0.754-5.342-2.26c-1.448-1.514-2.172-3.58-2.172-6.209c0-2.654,0.731-4.783,2.196-6.387
		c1.461-1.6,3.394-2.402,5.798-2.402c2.085,0,3.762,0.531,5.028,1.586c1.264,1.061,1.99,2.377,2.175,3.957H40.835z"/>
	<polygon fill="#FFFFFF" points="59.671,148.294 50.987,148.294 50.987,151.781 58.958,151.781 58.958,154.63 50.987,154.63 
		50.987,158.849 60.071,158.849 60.071,161.8 47.637,161.8 47.637,145.39 59.671,145.39 	"/>
	<polygon fill="#FFFFFF" points="62.689,145.39 66.285,145.39 72.793,156.832 72.793,145.39 75.991,145.39 75.991,161.8 
		72.565,161.8 65.883,150.156 65.883,161.8 62.689,161.8 	"/>
	<polygon fill="#FFFFFF" points="91.132,145.39 91.132,148.296 86.223,148.296 86.223,161.8 82.772,161.8 82.772,148.296 
		77.84,148.296 77.84,145.39 	"/>
	<polygon fill="#FFFFFF" points="105.27,148.294 96.587,148.294 96.587,151.781 104.559,151.781 104.559,154.63 96.587,154.63 
		96.587,158.849 105.669,158.849 105.669,161.8 93.236,161.8 93.236,145.39 105.27,145.39 	"/>
	<rect x="114.4" y="145.392" fill="#FFFFFF" width="3.405" height="16.408"/>
	<polygon fill="#FFFFFF" points="120.956,145.39 124.55,145.39 131.066,156.832 131.066,145.39 134.26,145.39 134.26,161.8 
		130.833,161.8 124.152,150.156 124.152,161.8 120.956,161.8 	"/>
	<path fill="#FFFFFF" d="M147.97,157.849c0.797-1.004,1.195-2.43,1.195-4.277c0-1.838-0.398-3.264-1.195-4.268
		c-0.797-1.008-1.876-1.508-3.233-1.508c-1.359,0-2.444,0.498-3.253,1.502c-0.808,1.002-1.212,2.428-1.212,4.273
		c0,1.848,0.404,3.273,1.212,4.277c0.809,1,1.894,1.502,3.253,1.502C146.094,159.351,147.173,158.849,147.97,157.849
		 M150.113,160.341c-1.239,1.275-3.032,1.916-5.376,1.916c-2.346,0-4.139-0.641-5.379-1.916c-1.663-1.564-2.493-3.822-2.493-6.77
		c0-3.004,0.83-5.26,2.493-6.768c1.24-1.275,3.033-1.916,5.379-1.916c2.344,0,4.137,0.641,5.376,1.916
		c1.656,1.508,2.483,3.764,2.483,6.768C152.596,156.519,151.769,158.777,150.113,160.341"/>
	<polygon fill="#FFFFFF" points="164.813,145.39 168.377,145.39 162.782,161.8 159.541,161.8 153.992,145.39 157.656,145.39 
		161.219,157.847 	"/>
	<path fill="#FFFFFF" d="M173.205,155.599h4.204l-2.074-6.457L173.205,155.599z M173.432,145.39h3.877l5.807,16.41h-3.717
		l-1.083-3.371h-6.045l-1.11,3.371h-3.587L173.432,145.39z"/>
	<path fill="#FFFFFF" d="M184.78,164.439c0.639-0.178,1.107-0.475,1.409-0.891c0.301-0.416,0.471-0.998,0.52-1.748h-1.929v-3.328
		h3.43v2.881c0,0.506-0.067,1.035-0.2,1.584c-0.134,0.545-0.383,1.023-0.747,1.426c-0.394,0.428-0.856,0.754-1.385,0.971
		c-0.532,0.219-0.898,0.328-1.098,0.328V164.439z"/>
	<path fill="#FFFFFF" d="M200.435,156.523c-0.142,0.928-0.081,1.682,0.178,2.26c0.503,1.084,1.684,1.625,3.538,1.625
		c0.831,0,1.616-0.119,2.351-0.355c1.416-0.463,2.252-1.283,2.503-2.471c0.192-0.891,0.048-1.525-0.433-1.906
		c-0.483-0.369-1.294-0.693-2.438-0.969l-2.116-0.498c-1.373-0.328-2.321-0.688-2.838-1.08c-0.891-0.686-1.192-1.705-0.903-3.061
		c0.313-1.471,1.076-2.676,2.297-3.619c1.215-0.943,2.753-1.416,4.617-1.416c1.716,0,3.084,0.414,4.102,1.24
		c1.022,0.832,1.34,2.152,0.954,3.971h-2.083c0.072-0.877-0.019-1.547-0.279-2.014c-0.494-0.852-1.554-1.279-3.174-1.279
		c-1.305,0-2.299,0.273-2.988,0.82c-0.685,0.551-1.108,1.189-1.263,1.918c-0.171,0.799,0.037,1.387,0.623,1.756
		c0.386,0.24,1.316,0.535,2.783,0.893l2.184,0.521c1.052,0.254,1.831,0.6,2.335,1.035c0.886,0.766,1.17,1.877,0.859,3.332
		c-0.386,1.809-1.322,3.104-2.808,3.883c-1.48,0.779-3.098,1.17-4.839,1.17c-2.037,0-3.514-0.52-4.445-1.559
		c-0.926-1.031-1.194-2.43-0.8-4.197H200.435z"/>
	<path fill="#FFFFFF" d="M218.959,145.445l-2.149,10.107c-0.252,1.189-0.242,2.176,0.032,2.963c0.41,1.186,1.396,1.781,2.961,1.781
		c1.879,0,3.292-0.641,4.241-1.926c0.515-0.697,0.897-1.637,1.149-2.818l2.147-10.107h2.248l-1.958,9.188
		c-0.422,2.008-1.019,3.555-1.791,4.643c-1.418,1.971-3.508,2.959-6.268,2.959c-2.761,0-4.425-0.988-4.989-2.959
		c-0.31-1.088-0.254-2.635,0.168-4.643l1.959-9.188H218.959z"/>
	<path fill="#FFFFFF" d="M239.352,155.097l-0.946-7.225l-4.172,7.225H239.352z M237.772,145.445h2.505l2.46,16.355h-2.427
		l-0.622-4.9h-6.469l-2.805,4.9h-2.273L237.772,145.445z"/>
	<polygon fill="#FFFFFF" points="253.526,145.445 265.452,145.445 265.016,147.451 255.25,147.451 254.205,152.414 263.235,152.414 
		262.833,154.308 253.806,154.308 252.624,159.853 262.559,159.853 262.145,161.8 250.053,161.8 	"/>
	<polygon fill="#FFFFFF" points="268.522,145.445 271.139,145.445 276.584,158.695 279.401,145.445 281.502,145.445 278.032,161.8 
		275.547,161.8 269.969,148.564 267.165,161.8 265.049,161.8 	"/>
	<polygon fill="#FFFFFF" points="285.198,145.445 297.124,145.445 296.688,147.451 286.926,147.451 285.875,152.414 
		294.907,152.414 294.506,154.308 285.475,154.308 284.299,159.853 294.229,159.853 293.815,161.8 281.725,161.8 	"/>
	<path fill="#FFFFFF" d="M306.206,152.939c1.037,0,1.906-0.209,2.6-0.623c0.697-0.414,1.158-1.162,1.387-2.246
		c0.246-1.16-0.012-1.953-0.766-2.377c-0.408-0.221-0.992-0.332-1.748-0.332h-5.412l-1.18,5.578H306.206z M300.461,145.445h7.57
		c1.25,0,2.234,0.182,2.961,0.545c1.391,0.701,1.887,1.986,1.492,3.863c-0.205,0.98-0.582,1.781-1.119,2.406
		c-0.539,0.625-1.211,1.125-2.016,1.504c0.582,0.258,0.99,0.6,1.223,1.023c0.227,0.424,0.26,1.107,0.1,2.057l-0.389,2.195
		c-0.113,0.623-0.16,1.088-0.137,1.393c0.023,0.521,0.191,0.852,0.504,1.002l-0.078,0.367h-2.719
		c-0.041-0.143-0.066-0.322-0.066-0.547c0-0.221,0.059-0.652,0.166-1.291l0.445-2.729c0.174-1.066-0.072-1.783-0.734-2.146
		c-0.385-0.199-1.031-0.301-1.936-0.301h-5.043l-1.479,7.014h-2.221L300.461,145.445z"/>
	<path fill="#FFFFFF" d="M327.616,145.914c1.438,0.854,2.111,2.35,2.023,4.486h-2.191c-0.016-1.195-0.381-2.064-1.102-2.609
		c-0.719-0.547-1.719-0.82-2.994-0.82c-1.514,0-2.912,0.566-4.186,1.705c-1.279,1.133-2.158,2.824-2.641,5.068
		c-0.416,1.945-0.324,3.523,0.273,4.746c0.598,1.221,1.865,1.83,3.793,1.83c1.475,0,2.791-0.43,3.938-1.285
		c1.154-0.854,1.938-2.236,2.363-4.146h-5.121l0.398-1.84h7.182l-1.861,8.752h-1.422l-0.094-2.104
		c-0.922,0.82-1.711,1.393-2.355,1.713c-1.092,0.551-2.389,0.824-3.887,0.824c-1.938,0-3.469-0.627-4.598-1.885
		c-1.189-1.57-1.49-3.727-0.9-6.475c0.576-2.74,1.783-4.918,3.617-6.535c1.736-1.545,3.725-2.316,5.967-2.316
		C325.356,145.023,326.62,145.318,327.616,145.914"/>
	<polygon fill="#FFFFFF" points="334.897,145.445 337.133,145.445 333.663,161.8 331.424,161.8 	"/>
	<path fill="#FFFFFF" d="M347.063,155.097l-0.943-7.225l-4.174,7.225H347.063z M345.487,145.445h2.504l2.457,16.355h-2.424
		l-0.629-4.9h-6.467l-2.803,4.9h-2.271L345.487,145.445z"/>
	<path fill="#FFFFFF" d="M360.112,156.523c-0.141,0.928-0.078,1.682,0.182,2.26c0.5,1.084,1.682,1.625,3.537,1.625
		c0.832,0,1.613-0.119,2.352-0.355c1.412-0.463,2.25-1.283,2.502-2.471c0.195-0.891,0.049-1.525-0.436-1.906
		c-0.482-0.369-1.293-0.693-2.439-0.969l-2.113-0.498c-1.375-0.328-2.318-0.688-2.838-1.08c-0.889-0.686-1.191-1.705-0.9-3.061
		c0.309-1.471,1.07-2.676,2.295-3.619c1.215-0.943,2.754-1.416,4.617-1.416c1.711,0,3.082,0.414,4.102,1.24
		c1.02,0.832,1.338,2.152,0.951,3.971h-2.08c0.072-0.877-0.018-1.547-0.279-2.014c-0.498-0.852-1.555-1.279-3.17-1.279
		c-1.311,0-2.305,0.273-2.992,0.82c-0.686,0.551-1.107,1.189-1.264,1.918c-0.17,0.799,0.037,1.387,0.625,1.756
		c0.387,0.24,1.311,0.535,2.783,0.893l2.182,0.521c1.053,0.254,1.83,0.6,2.338,1.035c0.885,0.766,1.168,1.877,0.857,3.332
		c-0.389,1.809-1.324,3.104-2.805,3.883c-1.486,0.779-3.102,1.17-4.846,1.17c-2.035,0-3.514-0.52-4.441-1.559
		c-0.928-1.031-1.195-2.43-0.801-4.197H360.112z"/>
	<polygon fill="#FFFFFF" points="376.446,145.445 388.366,145.445 387.934,147.451 378.17,147.451 377.124,152.414 386.149,152.414 
		385.75,154.308 376.721,154.308 375.542,159.853 385.469,159.853 385.061,161.8 372.969,161.8 	"/>
	<path fill="#FFFFFF" d="M403.786,152.939c1.037,0,1.906-0.209,2.6-0.623s1.156-1.162,1.385-2.246
		c0.246-1.16-0.008-1.953-0.766-2.377c-0.406-0.221-0.99-0.332-1.748-0.332h-5.41l-1.182,5.578H403.786z M398.042,145.445h7.57
		c1.246,0,2.234,0.182,2.961,0.545c1.387,0.701,1.885,1.986,1.494,3.863c-0.207,0.98-0.582,1.781-1.121,2.406
		s-1.211,1.125-2.02,1.504c0.586,0.258,0.992,0.6,1.223,1.023s0.262,1.107,0.1,2.057l-0.389,2.195
		c-0.109,0.623-0.154,1.088-0.135,1.393c0.025,0.521,0.191,0.852,0.504,1.002l-0.08,0.367h-2.717
		c-0.043-0.143-0.066-0.322-0.066-0.547c0-0.221,0.055-0.652,0.168-1.291l0.445-2.729c0.17-1.066-0.076-1.783-0.734-2.146
		c-0.385-0.199-1.035-0.301-1.938-0.301h-5.043l-1.482,7.014h-2.215L398.042,145.445z"/>
	<polygon fill="#FFFFFF" points="414.454,145.445 426.374,145.445 425.94,147.451 416.178,147.451 415.131,152.414 424.157,152.414 
		423.756,154.308 414.727,154.308 413.549,159.853 423.477,159.853 423.067,161.8 410.977,161.8 	"/>
	<polygon fill="#FFFFFF" points="429.448,145.445 432.065,145.445 437.504,158.695 440.321,145.445 442.426,145.445 438.954,161.8 
		436.469,161.8 430.893,148.564 428.088,161.8 425.971,161.8 	"/>
	<path fill="#FFFFFF" d="M457.043,153.371c0.408-1.922,0.236-3.467-0.516-4.641c-0.754-1.174-2.002-1.76-3.746-1.76
		c-1.693,0-3.199,0.582-4.514,1.744c-1.318,1.162-2.221,2.873-2.699,5.137c-0.391,1.814-0.254,3.336,0.398,4.584
		c0.652,1.24,2.012,1.861,4.064,1.861c1.951,0,3.514-0.697,4.68-2.1C455.881,156.798,456.657,155.193,457.043,153.371
		 M458.885,147.783c0.777,1.447,0.926,3.301,0.439,5.557c-0.516,2.441-1.568,4.473-3.148,6.088c-1.863,1.9-4.141,2.85-6.836,2.85
		c-2.512,0-4.316-0.83-5.396-2.492c-0.947-1.604-1.158-3.631-0.637-6.078c0.469-2.211,1.42-4.104,2.848-5.678
		c1.842-2.018,4.143-3.029,6.906-3.029C455.948,145,457.885,145.931,458.885,147.783"/>
	<polygon fill="#FFFFFF" points="464.94,145.445 466.672,159.375 474.278,145.445 476.762,145.445 467.321,161.8 464.971,161.8 
		462.487,145.445 	"/>
	<path fill="#FFFFFF" d="M483.506,155.097l-0.945-7.225l-4.176,7.225H483.506z M481.928,145.445h2.504l2.459,16.355h-2.428
		l-0.623-4.9h-6.469l-2.799,4.9h-2.275L481.928,145.445z"/>
	<path fill="#FFFFFF" d="M500.549,23.406c-2.613-7.465-2.438-19.319-2.438-19.319c-1.852,1.44-30.641,23.34-37.328,51.87
		c-5.205,22.142,3.266,30.455,3.576,30.781H6.244l-0.408,6.729h471.487l0.043,0.016l1.299-6.745
		c0.711-0.066,23.654-2.694,29.34-30.115C510.282,45.878,503.147,30.963,500.549,23.406"/>
	<path fill="#FFFFFF" d="M478.415,93.371l-0.764,24.438C449.881,125.824,452.118,93.371,478.415,93.371"/>
	<path fill="#008F8A" d="M463.717,105.931c1.295-6.936,7.816-12.561,14.578-12.561c6.76,0,11.197,5.625,9.908,12.561
		c-1.285,6.93-7.811,12.561-14.574,12.561C466.872,118.492,462.436,112.861,463.717,105.931"/>
	<path fill="#008F8A" d="M498.11,4.086c0,0-0.172,11.854,2.438,19.32c2.596,7.561,9.736,22.469,7.461,33.227
		c-5.795,27.84-29.371,30.112-29.371,30.112s11.688-6.878,15.369-24.668c2.178-10.479-1.273-14.863-2.441-23.242
		c-1.354-9.477,1.33-18.377,1.33-18.377s-7.633,5.46-11.17,18.636c-3.986,15.095,0.846,19.046,0.359,28.94
		c-0.689,16.439-6.973,17.789-6.973,17.789s-14.43-6.385-9.539-29.859C471.606,27.018,498.11,4.086,498.11,4.086"/>
	<path fill="#FFFFFF" d="M324.053,69.445h-15.939h-2.428l7.699-41.106h2.348h16.365h2.447c5.535,0,9.129,2.496,8.059,9.55
		c-0.846,5.365-3.52,9.066-7.631,10.407c3.68,0.665,5.678,4.436,4.951,9.556c-1.186,7.389-6.234,11.593-13.52,11.593H324.053z
		 M319.432,61.392h2.266c2.697,0,5.549-0.497,6.135-4.709c0.412-2.263-0.326-4.105-3.182-4.105H321.1L319.432,61.392z
		 M322.528,44.525h1.596c3.709,0,5.449-1.523,5.971-4.518c0.504-3.373-1.949-3.623-4.033-3.623h-2.008L322.528,44.525z"/>
	<path fill="#FFFFFF" d="M297.204,36.553c-1.521-0.103-3.438,1.167-3.775,3.182c-0.684,4.856,10.15,9.409,8.797,18.553
		c-0.664,4.19-4.174,11.982-14.672,11.982h-2.527c-3.248,0-6.459-0.67-9.459-1.41l0.82-10.148c0.754,0.483,4.453,2.338,9.23,2.68
		c1.607,0.093,3.465-1.017,3.787-3.193c0.744-4.709-10.064-9.657-8.564-19.304c0.408-2.839,3.01-11.239,14.098-11.239h2.527
		c2.924,0,5.801,0.503,8.465,1.171l-0.838,9.665C304.336,38.055,300.983,36.709,297.204,36.553"/>
	<path fill="#FFFFFF" d="M19.224,69.006c-4.023,0-7.974-0.653-11.837-1.5l0.603-9.479c0.823,0.342,1.567,0.773,2.506,1.079
		c0,0,3.023,1.424,8.558,1.513c1.028-0.089,2.193-0.325,3.278-0.741c1.679-0.685,3.454-2.164,3.864-4.875
		c0.315-2.338-0.841-4.351-2.11-6.044c-0.669-0.824-1.412-1.755-2.266-2.675c-0.832-0.921-1.671-1.858-2.512-2.86
		c-3.45-3.937-6.301-8.207-5.532-13.676c0.401-3.102,3.282-13.272,17.709-13.272h2.51c3.594,0,7.127,0.527,10.496,1.257
		l-0.673,8.996c-0.769-0.344-3.693-1.837-9.155-1.837c-1.01,0.051-2.266,0.327-3.35,0.912c-1.612,0.751-3.364,2.184-3.707,4.792
		c-0.326,2.333,0.84,4.36,2.095,6.048c0.684,0.821,1.441,1.678,2.281,2.591c0.842,0.839,1.671,1.768,2.584,2.778
		c3.445,3.754,6.314,7.802,5.647,12.835c-0.688,4.703-4.796,14.158-18.478,14.158H19.224z"/>
	<path fill="#FFFFFF" d="M48.423,28.488h13.173l-4.278,24.097c-0.767,4.931,0.16,8.133,3.357,8.719
		c5.274-0.837,6.284-6.53,7.71-13.169l3.448-19.647h13.176l-5.117,29.028c-1.1,6.313-6.719,12.843-19.306,12.843h-2.52
		c-12.908,0-15.775-6.53-14.936-12.16L48.423,28.488z"/>
	<path fill="#FFFFFF" d="M103.371,54.009l-2.421-7.562c0.252,0,3.447,0.171,3.691,0.171c2.095-0.339,4.034-2.591,4.517-5.615
		c0.432-2.85-0.655-3.707-2.251-3.951c-1.169,0.088-5.385,0-5.385,0l-5.964,32.46H83.664l7.7-41.098h22.844
		c7.972,0,8.053,7.886,7.474,11.661c-1.345,8.793-7.388,14.009-14.121,14.009C107.333,54.084,103.713,54.009,103.371,54.009"/>
	<polygon fill="#FFFFFF" points="126.524,28.413 153.644,28.413 152.131,36.895 136.849,36.895 135.422,44.43 148.11,44.43 
		146.426,53.253 133.771,53.253 132.229,60.962 147.419,60.962 145.919,69.52 118.814,69.52 	"/>
	<path fill="#FFFFFF" d="M172.437,36.97h-3.521l-6.06,32.542H150.45l7.729-41.098h21.726c2.34,0,11.652,0.257,10.07,10.904
		c-0.997,6.446-4.605,9.982-9.483,11.988l13.501,36.062h-13.344l-12.743-40.92c0.75,0.17,3.276,0.17,3.616,0.17
		c2.593-0.341,5.19-1.856,5.792-5.444C177.966,36.97,174.687,36.97,172.437,36.97"/>
	<path fill="#FFFFFF" d="M441.178,36.553c-1.523-0.103-3.418,1.167-3.688,3.182c-0.764,4.856,10.061,9.409,8.723,18.553
		c-0.654,4.19-4.209,11.982-14.588,11.982h-2.605c-3.252,0-6.465-0.67-9.494-1.41l0.869-10.148c0.754,0.483,4.43,2.338,9.207,2.68
		c1.596,0.093,3.465-1.017,3.775-3.193c0.758-4.709-10.045-9.657-8.553-19.304c0.416-2.839,3.01-11.239,14.102-11.239h2.496
		c2.949,0,5.787,0.503,8.498,1.171l-0.857,9.665C448.325,38.055,444.956,36.709,441.178,36.553"/>
	<path fill="#FFFFFF" d="M365.176,36.97h-3.451l-6.139,32.542h-12.328l7.625-41.098h21.729c2.352,0,11.695,0.257,10.082,10.904
		c-0.996,6.446-4.52,9.982-9.482,11.988l6.891,18.206h-12.311l-7.166-23.064c0.756,0.17,3.293,0.17,3.705,0.17
		c2.496-0.341,5.201-1.856,5.691-5.444C370.704,36.97,367.426,36.97,365.176,36.97"/>
	<path fill="#FFFFFF" d="M218.661,51.068h-2.415l1.587-8.558h15.68h2.356l-4.947,26.699c-11.264,2.419-19.718,1.818-19.718,1.818
		c-20.043,0-19.733-15.682-18.462-23.582c2.023-13.676,11.576-26.92,28.697-26.92h1.509h1.27c4.604,0,9.068,0.676,13.402,1.753
		l-1.168,9.656c-1.422-0.499-6.545-2.34-12.487-2.34c-9.412,0-15.867,6.702-17.708,18.622c-1.272,8.402,1.841,13.519,7.954,14.187
		c2.953,0,5.38-1.189,5.38-1.189l2.093-10.146H218.661z"/>
	<path fill="#FFFFFF" d="M244.266,69.52h-2.35h-8.885h-1.696c5.207-8.387,19.46-33.649,23.412-41.174h2.356h10.066h2.197
		c1.664,13.826,3.59,27.513,5.697,41.174h-2.107h-8.471h-2.18c-0.246-3.953-0.758-7.785-1.27-11.663l-0.072-0.497h-10.398
		L244.266,69.52z M259.608,39.407l-5.361,10.152h6.459L259.608,39.407z"/>
	<path fill="#FFFFFF" d="M389.083,69.52h-2.352h-8.914h-1.666c5.205-8.387,19.461-33.649,23.426-41.174h2.338h10.078h2.184
		c1.668,13.826,3.605,27.513,5.689,41.174h-1.986h-8.553h-2.211c-0.25-3.953-0.75-7.785-1.27-11.663l-0.066-0.497h-10.41
		L389.083,69.52z M404.438,39.407l-5.377,10.152h6.447L404.438,39.407z"/>
</g>
</svg>
